<svg xmlns="http://www.w3.org/2000/svg" width="1200" height="470" viewBox="0 0 1200 470">
<defs>
<linearGradient id="bg" x1="0" y1="0" x2="1" y2="1"><stop offset="0" stop-color="#07061a"/><stop offset=".6" stop-color="#120f3a"/><stop offset="1" stop-color="#062430"/></linearGradient>
<radialGradient id="halo"><stop offset="0" stop-color="#8b6cff" stop-opacity=".55"/><stop offset="1" stop-color="#8b6cff" stop-opacity="0"/></radialGradient>
<radialGradient id="halo2"><stop offset="0" stop-color="#24c6dc" stop-opacity=".45"/><stop offset="1" stop-color="#24c6dc" stop-opacity="0"/></radialGradient>
<filter id="glow" x="-50%" y="-50%" width="200%" height="200%"><feGaussianBlur stdDeviation="3" result="b"/><feMerge><feMergeNode in="b"/><feMergeNode in="SourceGraphic"/></feMerge></filter>
<clipPath id="clip"><rect width="1200" height="470" rx="22"/></clipPath>
</defs>
<style>text{font-family:'Segoe UI',Inter,Helvetica,Arial,sans-serif}.mono{font-family:ui-monospace,SFMono-Regular,Menlo,Consolas,'Liberation Mono',monospace}.flow{stroke-dasharray:6 10;animation:flow 1.2s linear infinite}@keyframes flow{to{stroke-dashoffset:-32}}.flowq{stroke-dasharray:3 7;animation:flow 1s linear infinite}.halo{transform-box:fill-box;transform-origin:center;animation:halo 3s ease-in-out infinite}@keyframes halo{50%{transform:scale(1.18);opacity:.55}}.blink{animation:bk 1.4s ease-in-out infinite}@keyframes bk{50%{opacity:.15}}.float{animation:fl 4s ease-in-out infinite}@keyframes fl{50%{transform:translateY(-8px)}}.type{transform:scaleX(0);transform-box:fill-box;transform-origin:left;animation:ty 6s cubic-bezier(.3,.7,.3,1) infinite}@keyframes ty{0%,10%{transform:scaleX(0)}40%,88%{transform:scaleX(1)}100%{transform:scaleX(1);opacity:0}}.chk{opacity:0;animation:ck 6s infinite}@keyframes ck{0%,42%{opacity:0}48%,90%{opacity:1}100%{opacity:0}}.lbl{animation:lb .9s both}@keyframes lb{from{opacity:0;transform:translateY(10px)}}.sl0{animation:sl0 4s cubic-bezier(.6,0,.2,1) infinite}@keyframes sl0{0%,15%,85%,100%{transform:translate(0,0)}45%,60%{transform:translate(-11.7px,-6.8px)}}.sl1{animation:sl1 4s cubic-bezier(.6,0,.2,1) infinite}@keyframes sl1{0%,15%,85%,100%{transform:translate(0,0)}45%,60%{transform:translate(-3.9px,-2.2px)}}.sl2{animation:sl2 4s cubic-bezier(.6,0,.2,1) infinite}@keyframes sl2{0%,15%,85%,100%{transform:translate(0,0)}45%,60%{transform:translate(3.9px,2.2px)}}.sl3{animation:sl3 4s cubic-bezier(.6,0,.2,1) infinite}@keyframes sl3{0%,15%,85%,100%{transform:translate(0,0)}45%,60%{transform:translate(11.7px,6.8px)}}.dk0{animation:dk 3s ease-in-out infinite;animation-delay:0.0s}.dk1{animation:dk 3s ease-in-out infinite;animation-delay:0.25s}.dk2{animation:dk 3s ease-in-out infinite;animation-delay:0.5s}@keyframes dk{50%{transform:translateY(-6px)}}</style>
<g clip-path="url(#clip)"><rect width="1200" height="470" fill="url(#bg)"/><g stroke="#8fe9ff" stroke-opacity=".07"><line x1="-226" y1="220" x2="501" y2="-200"/><line x1="-192" y1="240" x2="536" y2="-180"/><line x1="-157" y1="260" x2="570" y2="-160"/><line x1="-122" y1="280" x2="605" y2="-140"/><line x1="-88" y1="300" x2="640" y2="-120"/><line x1="-53" y1="320" x2="674" y2="-100"/><line x1="-19" y1="340" x2="709" y2="-80"/><line x1="16" y1="360" x2="744" y2="-60"/><line x1="51" y1="380" x2="778" y2="-40"/><line x1="85" y1="400" x2="813" y2="-20"/><line x1="120" y1="420" x2="847" y2="0"/><line x1="155" y1="440" x2="882" y2="20"/><line x1="189" y1="460" x2="917" y2="40"/><line x1="224" y1="480" x2="951" y2="60"/><line x1="259" y1="500" x2="986" y2="80"/><line x1="293" y1="520" x2="1021" y2="100"/><line x1="328" y1="540" x2="1055" y2="120"/><line x1="362" y1="560" x2="1090" y2="140"/><line x1="397" y1="580" x2="1125" y2="160"/><line x1="432" y1="600" x2="1159" y2="180"/><line x1="466" y1="620" x2="1194" y2="200"/><line x1="501" y1="640" x2="1229" y2="220"/><line x1="536" y1="660" x2="1263" y2="240"/><line x1="570" y1="680" x2="1298" y2="260"/><line x1="605" y1="700" x2="1332" y2="280"/><line x1="640" y1="720" x2="1367" y2="300"/><line x1="674" y1="740" x2="1402" y2="320"/><line x1="709" y1="760" x2="1436" y2="340"/><line x1="744" y1="780" x2="1471" y2="360"/><line x1="778" y1="800" x2="1506" y2="380"/><line x1="813" y1="820" x2="1540" y2="400"/><line x1="847" y1="840" x2="1575" y2="420"/><line x1="882" y1="860" x2="1610" y2="440"/><line x1="917" y1="880" x2="1644" y2="460"/><line x1="-261" y1="360" x2="536" y2="820"/><line x1="-226" y1="340" x2="570" y2="800"/><line x1="-192" y1="320" x2="605" y2="780"/><line x1="-157" y1="300" x2="640" y2="760"/><line x1="-122" y1="280" x2="674" y2="740"/><line x1="-88" y1="260" x2="709" y2="720"/><line x1="-53" y1="240" x2="744" y2="700"/><line x1="-19" y1="220" x2="778" y2="680"/><line x1="16" y1="200" x2="813" y2="660"/><line x1="51" y1="180" x2="847" y2="640"/><line x1="85" y1="160" x2="882" y2="620"/><line x1="120" y1="140" x2="917" y2="600"/><line x1="155" y1="120" x2="951" y2="580"/><line x1="189" y1="100" x2="986" y2="560"/><line x1="224" y1="80" x2="1021" y2="540"/><line x1="259" y1="60" x2="1055" y2="520"/><line x1="293" y1="40" x2="1090" y2="500"/><line x1="328" y1="20" x2="1125" y2="480"/><line x1="362" y1="0" x2="1159" y2="460"/><line x1="397" y1="-20" x2="1194" y2="440"/><line x1="432" y1="-40" x2="1229" y2="420"/><line x1="466" y1="-60" x2="1263" y2="400"/><line x1="501" y1="-80" x2="1298" y2="380"/><line x1="536" y1="-100" x2="1332" y2="360"/><line x1="570" y1="-120" x2="1367" y2="340"/><line x1="605" y1="-140" x2="1402" y2="320"/><line x1="640" y1="-160" x2="1436" y2="300"/><line x1="674" y1="-180" x2="1471" y2="280"/><line x1="709" y1="-200" x2="1506" y2="260"/><line x1="744" y1="-220" x2="1540" y2="240"/></g><polygon points="132.1,293.0 1102.1,293.0 1102.1,307.0 132.1,307.0" fill="#0c0b26" stroke="#24c6dc" stroke-opacity=".25"/><path class="flow" d="M126.9,300.0 L1096.9,300.0" stroke="#24c6dc" stroke-width="2" fill="none" stroke-opacity=".8"/><g><polygon points="66.3,292.0 114.8,320.0 114.8,314.0 66.3,286.0" fill="#111a34"/><polygon points="168.5,289.0 114.8,320.0 114.8,314.0 168.5,283.0" fill="#0b0f20"/><polygon points="120.0,255.0 168.5,283.0 114.8,314.0 66.3,286.0" fill="#555f7f"/><polyline points="66.3,286.0 66.3,292.0 114.8,320.0 168.5,289.0 168.5,283.0 120.0,255.0 66.3,286.0 114.8,314.0 168.5,283.0" fill="none" stroke="#24c6dc" stroke-opacity=".75" stroke-width="1"/><line x1="114.8" y1="320.0" x2="114.8" y2="314.0" stroke="#24c6dc" stroke-opacity=".75"/></g><g><polygon points="71.5,276.0 120.0,304.0 120.0,298.0 71.5,270.0" fill="#111a34"/><polygon points="173.7,273.0 120.0,304.0 120.0,298.0 173.7,267.0" fill="#0b0f20"/><polygon points="125.2,239.0 173.7,267.0 120.0,298.0 71.5,270.0" fill="#555f7f"/><polyline points="71.5,270.0 71.5,276.0 120.0,304.0 173.7,273.0 173.7,267.0 125.2,239.0 71.5,270.0 120.0,298.0 173.7,267.0" fill="none" stroke="#24c6dc" stroke-opacity=".75" stroke-width="1"/><line x1="120.0" y1="304.0" x2="120.0" y2="298.0" stroke="#24c6dc" stroke-opacity=".75"/></g><g class="float" opacity="1"><polygon points="76.7,260.0 125.2,288.0 125.2,282.0 76.7,254.0" fill="#111a34"/><polygon points="178.9,257.0 125.2,288.0 125.2,282.0 178.9,251.0" fill="#0b0f20"/><polygon points="130.4,223.0 178.9,251.0 125.2,282.0 76.7,254.0" fill="#555f7f"/><polyline points="76.7,254.0 76.7,260.0 125.2,288.0 178.9,257.0 178.9,251.0 130.4,223.0 76.7,254.0 125.2,282.0 178.9,251.0" fill="none" stroke="#24c6dc" stroke-opacity=".75" stroke-width="1"/><line x1="125.2" y1="288.0" x2="125.2" y2="282.0" stroke="#24c6dc" stroke-opacity=".75"/></g><g class="float"><line x1="128.7" y1="234.0" x2="158.1" y2="251.0" stroke="#e8fbff" stroke-opacity=".7" stroke-width="2"/></g><g class="float"><line x1="119.1" y1="239.5" x2="138.2" y2="250.5" stroke="#e8fbff" stroke-opacity=".7" stroke-width="2"/></g><g class="float"><line x1="109.6" y1="245.0" x2="139.1" y2="262.0" stroke="#e8fbff" stroke-opacity=".7" stroke-width="2"/></g><g class="float"><line x1="100.1" y1="250.5" x2="119.1" y2="261.5" stroke="#e8fbff" stroke-opacity=".7" stroke-width="2"/></g><g class="sl0" opacity="1"><polygon points="256.8,300.0 269.4,307.2 269.4,261.2 256.8,254.0" fill="#1a1445"/><polygon points="326.5,274.2 269.4,307.2 269.4,261.2 326.5,228.2" fill="#0f0c2a"/><polygon points="314.0,221.0 326.5,228.2 269.4,261.2 256.8,254.0" fill="#5f5893"/><polyline points="256.8,254.0 256.8,300.0 269.4,307.2 326.5,274.2 326.5,228.2 314.0,221.0 256.8,254.0 269.4,261.2 326.5,228.2" fill="none" stroke="#24c6dc" stroke-opacity=".75" stroke-width="1"/><line x1="269.4" y1="307.2" x2="269.4" y2="261.2" stroke="#24c6dc" stroke-opacity=".75"/></g><g class="sl1" opacity="1"><polygon points="271.1,308.2 283.7,315.5 283.7,269.5 271.1,262.2" fill="#1a1445"/><polygon points="340.8,282.5 283.7,315.5 283.7,269.5 340.8,236.5" fill="#0f0c2a"/><polygon points="328.3,229.2 340.8,236.5 283.7,269.5 271.1,262.2" fill="#5f5893"/><polyline points="271.1,262.2 271.1,308.2 283.7,315.5 340.8,282.5 340.8,236.5 328.3,229.2 271.1,262.2 283.7,269.5 340.8,236.5" fill="none" stroke="#24c6dc" stroke-opacity=".75" stroke-width="1"/><line x1="283.7" y1="315.5" x2="283.7" y2="269.5" stroke="#24c6dc" stroke-opacity=".75"/></g><g class="sl2" opacity="1"><polygon points="285.4,316.5 298.0,323.8 298.0,277.8 285.4,270.5" fill="#1a1445"/><polygon points="355.1,290.8 298.0,323.8 298.0,277.8 355.1,244.8" fill="#0f0c2a"/><polygon points="342.6,237.5 355.1,244.8 298.0,277.8 285.4,270.5" fill="#5f5893"/><polyline points="285.4,270.5 285.4,316.5 298.0,323.8 355.1,290.8 355.1,244.8 342.6,237.5 285.4,270.5 298.0,277.8 355.1,244.8" fill="none" stroke="#24c6dc" stroke-opacity=".75" stroke-width="1"/><line x1="298.0" y1="323.8" x2="298.0" y2="277.8" stroke="#24c6dc" stroke-opacity=".75"/></g><g class="sl3" opacity="1"><polygon points="299.7,324.8 312.3,332.0 312.3,286.0 299.7,278.8" fill="#1a1445"/><polygon points="369.4,299.0 312.3,332.0 312.3,286.0 369.4,253.0" fill="#0f0c2a"/><polygon points="356.9,245.8 369.4,253.0 312.3,286.0 299.7,278.8" fill="#5f5893"/><polyline points="299.7,278.8 299.7,324.8 312.3,332.0 369.4,299.0 369.4,253.0 356.9,245.8 299.7,278.8 312.3,286.0 369.4,253.0" fill="none" stroke="#24c6dc" stroke-opacity=".75" stroke-width="1"/><line x1="312.3" y1="332.0" x2="312.3" y2="286.0" stroke="#24c6dc" stroke-opacity=".75"/></g><ellipse class="halo" cx="508" cy="260" rx="70" ry="44" fill="url(#halo2)"/><g><polygon points="450.8,300.0 508.0,333.0 508.0,275.0 450.8,242.0" fill="#0b2337"/><polygon points="565.1,300.0 508.0,333.0 508.0,275.0 565.1,242.0" fill="#061622"/><polygon points="508.0,209.0 565.1,242.0 508.0,275.0 450.8,242.0" fill="#4d6b83"/><polyline points="450.8,242.0 450.8,300.0 508.0,333.0 565.1,300.0 565.1,242.0 508.0,209.0 450.8,242.0 508.0,275.0 565.1,242.0" fill="none" stroke="#24c6dc" stroke-opacity=".75" stroke-width="1"/><line x1="508.0" y1="333.0" x2="508.0" y2="275.0" stroke="#24c6dc" stroke-opacity=".75"/></g><circle class="blink" style="animation-delay:0.00s" cx="508.0" cy="223.0" r="3" fill="#24c6dc" filter="url(#glow)"/><circle class="blink" style="animation-delay:0.13s" cx="491.5" cy="232.5" r="3" fill="#24c6dc" filter="url(#glow)"/><circle class="blink" style="animation-delay:0.26s" cx="475.1" cy="242.0" r="3" fill="#24c6dc" filter="url(#glow)"/><circle class="blink" style="animation-delay:0.39s" cx="524.4" cy="232.5" r="3" fill="#24c6dc" filter="url(#glow)"/><circle class="blink" style="animation-delay:0.52s" cx="508.0" cy="242.0" r="3" fill="#24c6dc" filter="url(#glow)"/><circle class="blink" style="animation-delay:0.65s" cx="491.5" cy="251.5" r="3" fill="#24c6dc" filter="url(#glow)"/><circle class="blink" style="animation-delay:0.78s" cx="540.9" cy="242.0" r="3" fill="#24c6dc" filter="url(#glow)"/><circle class="blink" style="animation-delay:0.91s" cx="524.4" cy="251.5" r="3" fill="#24c6dc" filter="url(#glow)"/><circle class="blink" style="animation-delay:1.04s" cx="508.0" cy="261.0" r="3" fill="#24c6dc" filter="url(#glow)"/><g class="dk0"><path d="M657.9,300.0 L657.9,284.0 A44.1,25.5 0 0 0 746.1,284.0 L746.1,300.0 A44.1,25.5 0 0 1 657.9,300.0Z" fill="#1a1550" stroke="#8b6cff" stroke-opacity=".8"/><ellipse cx="702.0" cy="284.0" rx="44.1" ry="25.5" fill="#3a2f9a" stroke="#24c6dc" stroke-opacity=".8"/><ellipse class="blink" style="animation-delay:0.0s" cx="702.0" cy="284.0" rx="24.2" ry="14.0" fill="none" stroke="#24c6dc" stroke-dasharray="3 4"/></g><g class="dk1"><path d="M657.9,278.0 L657.9,262.0 A44.1,25.5 0 0 0 746.1,262.0 L746.1,278.0 A44.1,25.5 0 0 1 657.9,278.0Z" fill="#1a1550" stroke="#8b6cff" stroke-opacity=".8"/><ellipse cx="702.0" cy="262.0" rx="44.1" ry="25.5" fill="#3a2f9a" stroke="#24c6dc" stroke-opacity=".8"/><ellipse class="blink" style="animation-delay:0.3s" cx="702.0" cy="262.0" rx="24.2" ry="14.0" fill="none" stroke="#24c6dc" stroke-dasharray="3 4"/></g><g class="dk2"><path d="M657.9,256.0 L657.9,240.0 A44.1,25.5 0 0 0 746.1,240.0 L746.1,256.0 A44.1,25.5 0 0 1 657.9,256.0Z" fill="#1a1550" stroke="#8b6cff" stroke-opacity=".8"/><ellipse cx="702.0" cy="240.0" rx="44.1" ry="25.5" fill="#3a2f9a" stroke="#24c6dc" stroke-opacity=".8"/><ellipse class="blink" style="animation-delay:0.6s" cx="702.0" cy="240.0" rx="24.2" ry="14.0" fill="none" stroke="#24c6dc" stroke-dasharray="3 4"/></g><ellipse class="halo" cx="896" cy="240" rx="110" ry="80" fill="url(#halo)"/><g><polygon points="828.4,300.0 896.0,339.0 896.0,247.0 828.4,208.0" fill="#241a61"/><polygon points="963.5,300.0 896.0,339.0 896.0,247.0 963.5,208.0" fill="#160f3c"/><polygon points="896.0,169.0 963.5,208.0 896.0,247.0 828.4,208.0" fill="#6c5fb6"/><polyline points="828.4,208.0 828.4,300.0 896.0,339.0 963.5,300.0 963.5,208.0 896.0,169.0 828.4,208.0 896.0,247.0 963.5,208.0" fill="none" stroke="#ff5ea8" stroke-opacity=".75" stroke-width="1"/><line x1="896.0" y1="339.0" x2="896.0" y2="247.0" stroke="#ff5ea8" stroke-opacity=".75"/></g><text class="mono" x="896" y="213" font-size="15" font-weight="700" fill="#fff" text-anchor="middle" transform="matrix(1,0,0,1,0,0)" letter-spacing="2">LLM</text><line class="blink" style="animation-delay:0.0s" x1="953.1" y1="288.0" x2="953.1" y2="268.0" stroke="#ff5ea8" stroke-width="4" stroke-linecap="round"/><line class="blink" style="animation-delay:0.2s" x1="941.0" y1="295.0" x2="941.0" y2="258.0" stroke="#ff5ea8" stroke-width="4" stroke-linecap="round"/><line class="blink" style="animation-delay:0.4s" x1="928.9" y1="302.0" x2="928.9" y2="248.0" stroke="#ff5ea8" stroke-width="4" stroke-linecap="round"/><line class="blink" style="animation-delay:0.6s" x1="916.7" y1="309.0" x2="916.7" y2="283.0" stroke="#ff5ea8" stroke-width="4" stroke-linecap="round"/><line class="blink" style="animation-delay:0.8s" x1="904.6" y1="316.0" x2="904.6" y2="273.0" stroke="#ff5ea8" stroke-width="4" stroke-linecap="round"/><g class="float"><polygon points="1055.3,270.0 1159.2,270.0 1159.2,180.0 1055.3,180.0" fill="#0e0d2c" fill-opacity=".92" stroke="#24c6dc" stroke-opacity=".9"/><line class="type" style="animation-delay:0.00s" x1="1069.2" y1="198.0" x2="1150.2" y2="198.0" stroke="#e8fbff" stroke-width="3" stroke-linecap="round" stroke-opacity=".85"/><line class="type" style="animation-delay:0.35s" x1="1069.2" y1="214.0" x2="1136.7" y2="214.0" stroke="#e8fbff" stroke-width="3" stroke-linecap="round" stroke-opacity=".85"/><line class="type" style="animation-delay:0.70s" x1="1069.2" y1="230.0" x2="1145.7" y2="230.0" stroke="#e8fbff" stroke-width="3" stroke-linecap="round" stroke-opacity=".85"/><line class="type" style="animation-delay:1.05s" x1="1069.2" y1="246.0" x2="1114.2" y2="246.0" stroke="#e8fbff" stroke-width="3" stroke-linecap="round" stroke-opacity=".85"/><g class="chk"><circle cx="1138" cy="260" r="11" fill="#24c6dc" filter="url(#glow)"/><path d="M1133 260 l4 4 l7 -8" stroke="#07061a" stroke-width="2.5" fill="none"/></g></g><path class="flowq" d="M358,148 Q478,136 508,236" stroke="#ff5ea8" stroke-width="2" fill="none"/><circle cx="358" cy="148" r="4" fill="#ff5ea8" filter="url(#glow)"/><text class="mono" x="348" y="152" font-size="12" fill="#ff5ea8" text-anchor="end" letter-spacing="1">query: “What does clause 4.2 say?”</text><path class="flowq" d="M702,220 Q799,130 896,200" stroke="#24c6dc" stroke-width="2" fill="none"/><text class="mono" x="799" y="162" font-size="11" fill="#24c6dc" text-anchor="middle" letter-spacing="1.5">top-k chunks + scores</text><rect x="-5" y="-5" width="10" height="10" fill="#24c6dc" transform="rotate(0)" filter="url(#glow)" opacity=".95"><animateMotion dur="7s" begin="-0.0s" repeatCount="indefinite" path="M126.9,300.0 L1096.9,300.0"/></rect><rect x="-5" y="-5" width="10" height="10" fill="#8b6cff" transform="rotate(0)" filter="url(#glow)" opacity=".95"><animateMotion dur="7s" begin="-1.0s" repeatCount="indefinite" path="M126.9,300.0 L1096.9,300.0"/></rect><rect x="-5" y="-5" width="10" height="10" fill="#ff5ea8" transform="rotate(0)" filter="url(#glow)" opacity=".95"><animateMotion dur="7s" begin="-2.0s" repeatCount="indefinite" path="M126.9,300.0 L1096.9,300.0"/></rect><rect x="-5" y="-5" width="10" height="10" fill="#24c6dc" transform="rotate(0)" filter="url(#glow)" opacity=".95"><animateMotion dur="7s" begin="-3.0s" repeatCount="indefinite" path="M126.9,300.0 L1096.9,300.0"/></rect><rect x="-5" y="-5" width="10" height="10" fill="#8b6cff" transform="rotate(0)" filter="url(#glow)" opacity=".95"><animateMotion dur="7s" begin="-4.0s" repeatCount="indefinite" path="M126.9,300.0 L1096.9,300.0"/></rect><rect x="-5" y="-5" width="10" height="10" fill="#ff5ea8" transform="rotate(0)" filter="url(#glow)" opacity=".95"><animateMotion dur="7s" begin="-5.0s" repeatCount="indefinite" path="M126.9,300.0 L1096.9,300.0"/></rect><rect x="-5" y="-5" width="10" height="10" fill="#24c6dc" transform="rotate(0)" filter="url(#glow)" opacity=".95"><animateMotion dur="7s" begin="-6.0s" repeatCount="indefinite" path="M126.9,300.0 L1096.9,300.0"/></rect><g class="lbl" style="animation-delay:0.00s"><line x1="120" y1="344" x2="120" y2="356" stroke="#24c6dc" stroke-opacity=".6"/><text class="mono" x="120" y="370" font-size="12.5" font-weight="700" fill="#e8fbff" text-anchor="middle" letter-spacing="1.5">01 · INGEST</text><text class="mono" x="120" y="388" font-size="11" fill="#9fb4d9" text-anchor="middle">PDF · CSV · web pages</text></g><g class="lbl" style="animation-delay:0.12s"><line x1="314" y1="344" x2="314" y2="356" stroke="#24c6dc" stroke-opacity=".6"/><text class="mono" x="314" y="370" font-size="12.5" font-weight="700" fill="#e8fbff" text-anchor="middle" letter-spacing="1.5">02 · CHUNK</text><text class="mono" x="314" y="388" font-size="11" fill="#9fb4d9" text-anchor="middle">recursive splitter</text></g><g class="lbl" style="animation-delay:0.24s"><line x1="508" y1="344" x2="508" y2="356" stroke="#24c6dc" stroke-opacity=".6"/><text class="mono" x="508" y="370" font-size="12.5" font-weight="700" fill="#e8fbff" text-anchor="middle" letter-spacing="1.5">03 · EMBED</text><text class="mono" x="508" y="388" font-size="11" fill="#9fb4d9" text-anchor="middle">Hugging Face / OpenAI</text></g><g class="lbl" style="animation-delay:0.36s"><line x1="702" y1="344" x2="702" y2="356" stroke="#24c6dc" stroke-opacity=".6"/><text class="mono" x="702" y="370" font-size="12.5" font-weight="700" fill="#e8fbff" text-anchor="middle" letter-spacing="1.5">04 · INDEX</text><text class="mono" x="702" y="388" font-size="11" fill="#9fb4d9" text-anchor="middle">Pinecone · FAISS</text></g><g class="lbl" style="animation-delay:0.48s"><line x1="896" y1="344" x2="896" y2="356" stroke="#24c6dc" stroke-opacity=".6"/><text class="mono" x="896" y="370" font-size="12.5" font-weight="700" fill="#e8fbff" text-anchor="middle" letter-spacing="1.5">05 · GENERATE</text><text class="mono" x="896" y="388" font-size="11" fill="#9fb4d9" text-anchor="middle">Groq LLM + context</text></g><g class="lbl" style="animation-delay:0.60s"><line x1="1090" y1="344" x2="1090" y2="356" stroke="#24c6dc" stroke-opacity=".6"/><text class="mono" x="1090" y="370" font-size="12.5" font-weight="700" fill="#e8fbff" text-anchor="middle" letter-spacing="1.5">06 · ANSWER</text><text class="mono" x="1090" y="388" font-size="11" fill="#9fb4d9" text-anchor="middle">grounded · cited</text></g><text class="mono" x="40" y="46" font-size="12" fill="#24c6dc" letter-spacing="4">● RAG PIPELINE · ISOMETRIC VIEW</text><text x="40" y="78" font-size="24" font-weight="800" fill="#fff">How my chatbots stay grounded</text><text x="40" y="102" font-size="14" fill="#b9b4ea">Retrieve the right context first — then let the LLM answer, with sources.</text><path d="M18 38 V18 H38" fill="none" stroke="#24c6dc" stroke-width="2" stroke-opacity=".8"/><path d="M1182 38 V18 H1162" fill="none" stroke="#24c6dc" stroke-width="2" stroke-opacity=".8"/><path d="M18 432 V452 H38" fill="none" stroke="#24c6dc" stroke-width="2" stroke-opacity=".8"/><path d="M1182 432 V452 H1162" fill="none" stroke="#24c6dc" stroke-width="2" stroke-opacity=".8"/></g><rect x=".5" y=".5" width="1199" height="469" rx="22" fill="none" stroke="#24c6dc" stroke-opacity=".25"/>
</svg>